{"title":"Hell House S01E02 Greystone Murders 720p HDTV HEVC 2CH x265","uid":15691552,"size":354887622,"categoryP":"video","categoryS":"hd___tv_shows","magnet":"?xt=urn:btih:b9d1df12588dc765ecfd1b74352420cea9d4449e&amp;dn=Hell+House+S01E02+Greystone+Murders+720p+HDTV+HEVC+2CH+x265&amp;tr=udp%3A%2F%2Ftracker.leechers-paradise.org%3A6969&amp;tr=udp%3A%2F%2Fzer0day.ch%3A1337&amp;tr=udp%3A%2F%2Fopen.demonii.com%3A1337&amp;tr=udp%3A%2F%2Ftracker.coppersurfer.tk%3A6969&amp;tr=udp%3A%2F%2Fexodus.desync.com%3A6969","seeders":1,"leechers":0,"uploader":"nayhtut","files":1,"time":1472409725,"description":"[Screenshots]\r\n \nhttps://s16.postimg.org/m88r15yqt/Hell_House_S01_E02_Greystone_Murders_720p_HDTV_HE.jpg \nhttps://s16.postimg.org/xlvacd99h/Hell_House_S01_E02_Greystone_Murders_720p_HDTV_HE.jpg \nhttps://s16.postimg.org/722pa88px/Hell_House_S01_E02_Greystone_Murders_720p_HDTV_HE.jpg\r\n\r\n\r\nSource: Hell House S01E02 Greystone Murders 720p HDTV X264-BullRout (1 GB)\r\n\r\n\r\n__--__--__--__--__--__--__--__--__--__--__--__--__--\r\n\r\n\r\nComplete name                            : Hell.House.S01E02.Greystone.Murders.720p.HDTV.HEVC.2CH.x265.mkv\r\nFormat                                   : Matroska\r\nFormat version                           : Version 4 / Version 2\r\nFile size                                : 338 MiB\r\nDuration                                 : 43mn 9s\r\nOverall bit rate                         : 1 096 Kbps\r\nWriting application                      : Lavf57.25.100\r\nWriting library                          : Lavf57.25.100\r\n\r\nVideo\r\n\r\nID                                       : 1\r\nFormat                                   : V_MPEGH/ISO/HEVC\r\nCodec ID                                 : V_MPEGH/ISO/HEVC\r\nDuration                                 : 43mn 10s\r\nBit rate                                 : 882 Kbps\r\nWidth                                    : 1 280 pixels\r\nHeight                                   : 720 pixels\r\nDisplay aspect ratio                     : 16:9\r\nFrame rate                               : 25.000 fps\r\nBits/(Pixel*Frame)                       : 0.038\r\nStream size                              : 272 MiB (80%)\r\nWriting library                          : Lavc57.48.101 libx265\r\nDefault                                  : Yes\r\nForced                                   : No\r\nDURATION                                 : 00:43:09.931000000\r\nNUMBER_OF_FRAMES                         : 64747\r\nNUMBER_OF_BYTES                          : 935300210\r\n_STATISTICS_WRITING_APP                  : mkvmerge v8.8.0 ('Wind at my back') 64bit\r\n_STATISTICS_WRITING_DATE_UTC             : 2016-02-24 07:12:04\r\n_STATISTICS_TAGS                         : BPS DURATION NUMBER_OF_FRAMES NUMBER_OF_BYTES\r\n\r\nAudio\r\n\r\nID                                       : 2\r\nFormat                                   : AC-3\r\nFormat/Info                              : Audio Coding 3\r\nMode extension                           : CM (complete main)\r\nFormat settings, Endianness              : Big\r\nCodec ID                                 : A_AC3\r\nDuration                                 : 43mn 9s\r\nBit rate mode                            : Constant\r\nBit rate                                 : 192 Kbps\r\nChannel(s)                               : 2 channels\r\nChannel positions                        : Front: L R\r\nSampling rate                            : 48.0 KHz\r\nBit depth                                : 16 bits\r\nCompression mode                         : Lossy\r\nStream size                              : 59.3 MiB (18%)\r\nWriting library                          : Lavc57.24.102 ac3\r\nDefault                                  : Yes\r\nForced                                   : No\r\nDURATION                                 : 00:43:09.983000000\r\nNUMBER_OF_FRAMES                         : 80934\r\nNUMBER_OF_BYTES                          : 124314624\r\n_STATISTICS_WRITING_APP                  : mkvmerge v8.8.0 ('Wind at my back') 64bit\r\n_STATISTICS_WRITING_DATE_UTC             : 2016-02-24 07:12:04\r\n_STATISTICS_TAGS                         : BPS DURATION NUMBER_OF_FRAMES NUMBER_OF_BYTES\r\n\r\n__--__--__--__--__--__--__--__--__--__--__--__--__--\r\n\r\n\r\nIMDb: http://www.imdb.com/title/tt5120552\r\n\r\nAfter adding torrent with magnet link,\r\n\r\nplease add this  following trackers list to the torrent for better seeds.\r\n\r\n\r\nudp://tracker.coppersurfer.tk:6969/announce\r\n\r\nudp://tracker.opentrackr.org:1337/announce\r\n \nhttp://tracker.baravik.org:6970/announce\r\n \nhttp://tracker2.wasabii.com.tw:6969/announce\r\n\r\nudp://9.rarbg.me:2710/announce\r\n\r\n\r\n__--__--__--__--__--__--__--__--__--__--__--__--__--\r\n\r\n\r\nEnjoy!","torrent":{"xt":"urn:btih:b9d1df12588dc765ecfd1b74352420cea9d4449e","amp;dn":"Hell+House+S01E02+Greystone+Murders+720p+HDTV+HEVC+2CH+x265","amp;tr":["udp%3A%2F%2Ftracker.leechers-paradise.org%3A6969","udp%3A%2F%2Fzer0day.ch%3A1337","udp%3A%2F%2Fopen.demonii.com%3A1337","udp%3A%2F%2Ftracker.coppersurfer.tk%3A6969","udp%3A%2F%2Fexodus.desync.com%3A6969"],"infoHash":"b9d1df12588dc765ecfd1b74352420cea9d4449e","infoHashBuffer":{"type":"Buffer","data":[185,209,223,18,88,141,199,101,236,253,27,116,53,36,32,206,169,212,68,158]},"announce":[],"urlList":[]}}